<svg width="630" height="405" viewBox="-315 -180 630 405" version="1.1" xmlns="http://www.w3.org/2000/svg">
	<path d="M0 208c-50.75 20.25-134.95 22.05-202.83.77C-280.55 177.44-320.32 80.76-312.99 2.1-310.5-28.25-285.2-178.4-85.13-178.4H85.13C285.2-178.4 310.5-28.25 312.99 2.1c7.33 78.66-32.44 175.34-110.16 206.67C134.95 230.05 50.75 228.25 0 208Z" fill="#97F797" stroke="#B3B3B3" stroke-width="3"/>
	<g stroke="#B3B3B3" stroke-width="2">
		<circle r="180" fill="#97F7F7"/>
		<circle r="90" fill="#F797B7"/>
		<path d="m24 0a24 24 0 1 0 0 .01zm-10 0a14 14 0 1 1 0-.01z" fill="#9797F7" stroke="none"/>
		<g fill="none"><circle r="30"/><circle r="60"/><circle r="120"/><circle r="150"/><circle r="210"/><circle r="240"/><circle r="270"/><circle r="300"/><circle r="330"/></g>
		<path d="m-1-330h2v329h329v2h-329v329h-2v-329h-329v-2h329z"/>
		<path d="M-41 41-13 13M41 41 5 5" stroke="#000"/>
	</g>
	<g font-family="'Liberation Sans', Arial, sans-serif">
		<text y="10" font-size="24" fill="#808080">
			<tspan x="-282">90°</tspan>
			<tspan x="-192">60°</tspan>
			<tspan x="-102">30°</tspan>
			<tspan x="76">30°</tspan>
			<tspan x="166">60°</tspan>
			<tspan x="256">90°</tspan>
		</text>
		<text font-size="20" fill="#000" text-anchor="middle">
			<tspan x="0" y="-120">mid-peripheral</tspan>
			<tspan x="-228" y="-59">far</tspan>
			<tspan x="228">far</tspan>
			<tspan x="-228" dy="19">peripheral</tspan>
			<tspan x="228">peripheral</tspan>
			<tspan x="0">near-peripheral</tspan>
			<tspan x="-79" y="56">paracentral</tspan>
			<tspan x="59">central</tspan>
		</text>
	</g>
</svg>